<?xml version="1.0" encoding="UTF-8" standalone="no"?>
<!DOCTYPE svg PUBLIC "-//W3C//DTD SVG 1.1//EN" "http://www.w3.org/Graphics/SVG/1.1/DTD/svg11.dtd">
<svg width="100%" height="100%" viewBox="0 0 250 100" version="1.1" xmlns="http://www.w3.org/2000/svg" xmlns:xlink="http://www.w3.org/1999/xlink" xml:space="preserve" xmlns:serif="http://www.serif.com/" style="fill-rule:evenodd;clip-rule:evenodd;stroke-linejoin:round;stroke-miterlimit:2;">
    <g transform="matrix(0.338596,0,0,0.323747,-847.301,-139.479)">
        <g transform="matrix(331.393,0,0,346.592,2546,671.869)">
            <path d="M0.172,-0.644C0.214,-0.644 0.269,-0.644 0.336,-0.646C0.403,-0.648 0.453,-0.648 0.487,-0.648C0.488,-0.642 0.497,-0.594 0.516,-0.504C0.512,-0.501 0.505,-0.499 0.493,-0.499C0.486,-0.499 0.481,-0.501 0.479,-0.506C0.467,-0.531 0.448,-0.552 0.421,-0.569C0.394,-0.587 0.368,-0.596 0.343,-0.596L0.306,-0.596C0.265,-0.596 0.243,-0.591 0.242,-0.583C0.239,-0.567 0.237,-0.542 0.237,-0.507L0.237,-0.356C0.237,-0.353 0.251,-0.351 0.279,-0.351L0.331,-0.351C0.371,-0.351 0.394,-0.352 0.397,-0.354C0.401,-0.357 0.403,-0.367 0.405,-0.383C0.407,-0.393 0.409,-0.402 0.411,-0.411C0.412,-0.416 0.417,-0.418 0.426,-0.418C0.437,-0.418 0.444,-0.416 0.447,-0.413L0.447,-0.229C0.445,-0.226 0.438,-0.225 0.427,-0.225C0.418,-0.225 0.413,-0.227 0.411,-0.232C0.409,-0.242 0.406,-0.249 0.404,-0.256C0.402,-0.262 0.401,-0.267 0.399,-0.271C0.398,-0.274 0.397,-0.277 0.395,-0.279C0.393,-0.282 0.392,-0.284 0.392,-0.284C0.391,-0.285 0.39,-0.286 0.388,-0.287C0.386,-0.288 0.384,-0.288 0.384,-0.289C0.375,-0.294 0.35,-0.297 0.308,-0.297C0.261,-0.297 0.237,-0.294 0.237,-0.288L0.237,-0.138C0.237,-0.104 0.24,-0.078 0.244,-0.058C0.246,-0.05 0.257,-0.044 0.276,-0.039C0.296,-0.035 0.311,-0.032 0.32,-0.032C0.323,-0.032 0.324,-0.026 0.324,-0.014C0.324,-0.006 0.324,0 0.322,0.004C0.244,0 0.194,-0.002 0.173,-0.002L0.03,0.004C0.028,0.001 0.026,-0.004 0.026,-0.013C0.026,-0.026 0.028,-0.032 0.03,-0.032C0.038,-0.032 0.05,-0.035 0.067,-0.039C0.083,-0.044 0.093,-0.049 0.095,-0.054C0.099,-0.069 0.101,-0.097 0.101,-0.14L0.101,-0.509C0.101,-0.545 0.099,-0.57 0.095,-0.585C0.093,-0.59 0.083,-0.596 0.066,-0.603C0.049,-0.609 0.036,-0.612 0.029,-0.612C0.027,-0.612 0.025,-0.618 0.025,-0.63C0.025,-0.64 0.026,-0.646 0.028,-0.648C0.087,-0.645 0.135,-0.644 0.172,-0.644Z" style="fill:white;fill-rule:nonzero;"/>
        </g>
        <g transform="matrix(331.393,0,0,346.592,2724.96,671.869)">
            <path d="M0.104,-0.55C0.089,-0.564 0.082,-0.581 0.082,-0.602C0.082,-0.622 0.089,-0.639 0.104,-0.653C0.118,-0.667 0.135,-0.674 0.155,-0.674C0.175,-0.674 0.192,-0.667 0.206,-0.653C0.22,-0.639 0.227,-0.622 0.227,-0.602C0.227,-0.581 0.22,-0.564 0.206,-0.55C0.192,-0.536 0.175,-0.529 0.155,-0.529C0.135,-0.529 0.118,-0.536 0.104,-0.55ZM0.227,-0.146C0.227,-0.104 0.229,-0.074 0.233,-0.057C0.235,-0.052 0.244,-0.047 0.261,-0.041C0.278,-0.035 0.29,-0.032 0.295,-0.032C0.298,-0.032 0.299,-0.027 0.299,-0.016C0.299,-0.005 0.298,0.001 0.297,0.004C0.29,0.003 0.27,0.002 0.236,-0C0.202,-0.003 0.178,-0.004 0.163,-0.004C0.147,-0.004 0.123,-0.003 0.09,-0C0.057,0.002 0.037,0.003 0.029,0.004C0.027,0.001 0.026,-0.005 0.026,-0.016C0.026,-0.027 0.027,-0.032 0.029,-0.032C0.037,-0.032 0.049,-0.035 0.066,-0.041C0.083,-0.047 0.091,-0.052 0.093,-0.057C0.097,-0.076 0.1,-0.101 0.1,-0.131L0.1,-0.265C0.1,-0.301 0.094,-0.326 0.082,-0.338C0.077,-0.343 0.071,-0.347 0.062,-0.351C0.053,-0.354 0.045,-0.356 0.039,-0.357C0.032,-0.359 0.028,-0.36 0.028,-0.36C0.028,-0.383 0.03,-0.395 0.033,-0.395C0.046,-0.395 0.075,-0.399 0.119,-0.408C0.163,-0.417 0.194,-0.424 0.212,-0.43C0.213,-0.43 0.215,-0.43 0.218,-0.431C0.221,-0.432 0.223,-0.433 0.223,-0.433C0.227,-0.433 0.23,-0.431 0.233,-0.426C0.236,-0.422 0.237,-0.419 0.237,-0.416C0.237,-0.411 0.235,-0.401 0.233,-0.387C0.231,-0.372 0.23,-0.36 0.229,-0.349C0.227,-0.338 0.227,-0.328 0.227,-0.318L0.227,-0.146Z" style="fill:white;fill-rule:nonzero;"/>
        </g>
        <g transform="matrix(331.393,0,0,346.592,2830.47,671.869)">
            <path d="M0.478,-0.373C0.431,-0.346 0.387,-0.311 0.344,-0.267C0.363,-0.246 0.387,-0.219 0.417,-0.185C0.447,-0.15 0.472,-0.122 0.492,-0.1C0.512,-0.077 0.525,-0.063 0.533,-0.058C0.542,-0.05 0.553,-0.044 0.566,-0.04C0.58,-0.035 0.59,-0.032 0.596,-0.032C0.599,-0.032 0.601,-0.026 0.601,-0.014C0.601,-0.005 0.6,0 0.599,0.003C0.521,-0.001 0.479,-0.003 0.476,-0.003C0.46,-0.003 0.435,-0.002 0.401,0C0.368,0.003 0.349,0.004 0.346,0.004C0.343,0.001 0.342,-0.005 0.342,-0.016C0.342,-0.027 0.343,-0.032 0.346,-0.032C0.352,-0.032 0.36,-0.034 0.368,-0.036C0.377,-0.039 0.381,-0.042 0.381,-0.045C0.381,-0.046 0.381,-0.047 0.38,-0.048L0.237,-0.211L0.227,-0.208L0.227,-0.146C0.227,-0.104 0.229,-0.074 0.233,-0.057C0.235,-0.052 0.244,-0.047 0.261,-0.041C0.278,-0.035 0.289,-0.032 0.295,-0.032C0.297,-0.032 0.298,-0.027 0.298,-0.016C0.299,-0.005 0.298,0.001 0.297,0.004C0.29,0.003 0.269,0.002 0.236,-0C0.202,-0.003 0.178,-0.004 0.163,-0.004C0.147,-0.004 0.123,-0.003 0.09,-0C0.057,0.002 0.036,0.003 0.029,0.004C0.027,0.001 0.025,-0.005 0.025,-0.016C0.025,-0.027 0.027,-0.032 0.029,-0.032C0.036,-0.032 0.049,-0.035 0.065,-0.041C0.082,-0.047 0.091,-0.052 0.093,-0.057C0.097,-0.076 0.1,-0.101 0.1,-0.131L0.1,-0.519C0.1,-0.549 0.098,-0.573 0.095,-0.589C0.091,-0.599 0.075,-0.604 0.044,-0.604L0.035,-0.604C0.031,-0.604 0.029,-0.611 0.029,-0.624C0.029,-0.635 0.031,-0.641 0.035,-0.641C0.055,-0.643 0.076,-0.645 0.096,-0.648C0.117,-0.652 0.134,-0.655 0.148,-0.658C0.163,-0.661 0.176,-0.665 0.187,-0.668C0.198,-0.671 0.207,-0.674 0.214,-0.676L0.224,-0.679L0.226,-0.679C0.228,-0.679 0.231,-0.677 0.233,-0.673C0.236,-0.669 0.238,-0.665 0.238,-0.662C0.23,-0.633 0.227,-0.6 0.227,-0.563L0.227,-0.253C0.244,-0.257 0.255,-0.262 0.26,-0.266C0.27,-0.275 0.281,-0.284 0.293,-0.294C0.306,-0.305 0.315,-0.312 0.321,-0.318C0.327,-0.323 0.334,-0.329 0.341,-0.335C0.349,-0.342 0.354,-0.347 0.357,-0.35C0.361,-0.354 0.364,-0.357 0.367,-0.361C0.37,-0.364 0.373,-0.368 0.374,-0.371C0.375,-0.374 0.375,-0.376 0.375,-0.379C0.375,-0.385 0.372,-0.389 0.365,-0.391C0.359,-0.393 0.352,-0.394 0.344,-0.394C0.336,-0.394 0.331,-0.395 0.33,-0.396C0.329,-0.4 0.328,-0.407 0.328,-0.416C0.328,-0.425 0.329,-0.43 0.332,-0.431C0.379,-0.43 0.416,-0.43 0.443,-0.43C0.482,-0.43 0.516,-0.43 0.545,-0.432C0.548,-0.43 0.549,-0.427 0.549,-0.42C0.55,-0.414 0.549,-0.409 0.549,-0.403C0.548,-0.398 0.547,-0.396 0.546,-0.396C0.526,-0.396 0.503,-0.388 0.478,-0.373Z" style="fill:white;fill-rule:nonzero;"/>
        </g>
        <g transform="matrix(331.393,0,0,346.592,3039.53,671.869)">
            <path d="M0.206,-0.063C0.223,-0.063 0.236,-0.068 0.246,-0.076C0.255,-0.084 0.26,-0.094 0.26,-0.105L0.26,-0.204C0.258,-0.203 0.252,-0.201 0.241,-0.198C0.229,-0.194 0.222,-0.192 0.219,-0.19C0.215,-0.189 0.209,-0.187 0.2,-0.183C0.191,-0.18 0.185,-0.176 0.181,-0.173C0.178,-0.17 0.173,-0.167 0.168,-0.162C0.163,-0.158 0.159,-0.153 0.157,-0.147C0.155,-0.142 0.154,-0.136 0.154,-0.13C0.154,-0.106 0.159,-0.09 0.169,-0.079C0.18,-0.069 0.192,-0.063 0.206,-0.063ZM0.245,-0.438C0.291,-0.438 0.326,-0.426 0.35,-0.401C0.375,-0.376 0.387,-0.33 0.387,-0.265L0.387,-0.106C0.387,-0.084 0.395,-0.073 0.41,-0.073C0.421,-0.073 0.432,-0.077 0.443,-0.086C0.448,-0.083 0.45,-0.078 0.45,-0.071C0.45,-0.055 0.448,-0.043 0.443,-0.035C0.434,-0.027 0.419,-0.018 0.399,-0.008C0.378,0.001 0.359,0.006 0.341,0.006C0.325,0.006 0.31,0.001 0.296,-0.008C0.282,-0.018 0.272,-0.029 0.268,-0.041C0.267,-0.041 0.264,-0.039 0.26,-0.036C0.255,-0.032 0.249,-0.028 0.242,-0.023C0.235,-0.019 0.227,-0.014 0.217,-0.01C0.208,-0.005 0.197,-0.001 0.184,0.002C0.171,0.005 0.158,0.007 0.145,0.007C0.109,0.007 0.08,-0.003 0.059,-0.023C0.038,-0.043 0.027,-0.068 0.027,-0.098C0.027,-0.115 0.031,-0.131 0.04,-0.146C0.048,-0.161 0.057,-0.173 0.068,-0.182C0.079,-0.192 0.093,-0.2 0.111,-0.208C0.13,-0.217 0.145,-0.223 0.158,-0.227C0.171,-0.231 0.188,-0.236 0.208,-0.242C0.229,-0.247 0.243,-0.251 0.251,-0.254C0.257,-0.256 0.26,-0.261 0.26,-0.269L0.26,-0.304C0.26,-0.357 0.243,-0.384 0.211,-0.384C0.173,-0.384 0.154,-0.362 0.154,-0.318C0.154,-0.304 0.148,-0.293 0.137,-0.287C0.125,-0.28 0.112,-0.276 0.098,-0.276C0.068,-0.276 0.047,-0.286 0.036,-0.306C0.036,-0.339 0.058,-0.369 0.102,-0.397C0.146,-0.425 0.194,-0.438 0.245,-0.438Z" style="fill:white;fill-rule:nonzero;"/>
        </g>
    </g>
    <g transform="matrix(0.723199,0,0,0.203546,-1919.49,20.8626)">
        <g>
            <g transform="matrix(25.8592,0,0,91.8777,2715.89,379.004)">
                <path d="M0.418,0.006C0.521,0.006 0.613,-0.029 0.675,-0.097L0.628,-0.144C0.571,-0.085 0.501,-0.06 0.421,-0.06C0.252,-0.06 0.125,-0.184 0.125,-0.35C0.125,-0.516 0.252,-0.64 0.421,-0.64C0.501,-0.64 0.571,-0.615 0.628,-0.557L0.675,-0.604C0.613,-0.672 0.521,-0.706 0.419,-0.706C0.208,-0.706 0.052,-0.555 0.052,-0.35C0.052,-0.145 0.208,0.006 0.418,0.006Z" style="fill:rgb(238,135,38);fill-rule:nonzero;"/>
            </g>
            <g transform="matrix(25.8592,0,0,91.8777,2736.68,379.004)">
                <path d="M0.42,0.006C0.63,0.006 0.787,-0.145 0.787,-0.35C0.787,-0.555 0.63,-0.706 0.42,-0.706C0.208,-0.706 0.052,-0.554 0.052,-0.35C0.052,-0.146 0.208,0.006 0.42,0.006ZM0.42,-0.06C0.251,-0.06 0.125,-0.183 0.125,-0.35C0.125,-0.517 0.251,-0.64 0.42,-0.64C0.588,-0.64 0.713,-0.517 0.713,-0.35C0.713,-0.183 0.588,-0.06 0.42,-0.06Z" style="fill:rgb(238,135,38);fill-rule:nonzero;"/>
            </g>
            <g transform="matrix(25.8592,0,0,91.8777,2760.96,379.004)">
                <path d="M0.594,-0.636L0.594,-0.7L0.114,-0.7L0.114,-0L0.188,-0L0.188,-0.297L0.55,-0.297L0.55,-0.361L0.188,-0.361L0.188,-0.636L0.594,-0.636Z" style="fill:rgb(238,135,38);fill-rule:nonzero;"/>
            </g>
            <g transform="matrix(25.8592,0,0,91.8777,2779.92,379.004)">
                <path d="M0.594,-0.636L0.594,-0.7L0.114,-0.7L0.114,-0L0.188,-0L0.188,-0.297L0.55,-0.297L0.55,-0.361L0.188,-0.361L0.188,-0.636L0.594,-0.636Z" style="fill:rgb(238,135,38);fill-rule:nonzero;"/>
            </g>
            <g transform="matrix(25.8592,0,0,91.8777,2798.87,379.004)">
                <path d="M0.188,-0.064L0.188,-0.324L0.55,-0.324L0.55,-0.387L0.188,-0.387L0.188,-0.636L0.594,-0.636L0.594,-0.7L0.114,-0.7L0.114,-0L0.609,-0L0.609,-0.064L0.188,-0.064Z" style="fill:rgb(238,135,38);fill-rule:nonzero;"/>
            </g>
            <g transform="matrix(25.8592,0,0,91.8777,2818.76,379.004)">
                <path d="M0.188,-0.064L0.188,-0.324L0.55,-0.324L0.55,-0.387L0.188,-0.387L0.188,-0.636L0.594,-0.636L0.594,-0.7L0.114,-0.7L0.114,-0L0.609,-0L0.609,-0.064L0.188,-0.064Z" style="fill:rgb(238,135,38);fill-rule:nonzero;"/>
            </g>
            <g transform="matrix(25.8592,0,0,91.8777,2848,379.004)">
                <path d="M0.307,0.006C0.486,0.006 0.568,-0.082 0.568,-0.185C0.568,-0.44 0.137,-0.324 0.137,-0.516C0.137,-0.586 0.194,-0.643 0.322,-0.643C0.384,-0.643 0.454,-0.624 0.514,-0.585L0.539,-0.644C0.483,-0.683 0.401,-0.706 0.322,-0.706C0.144,-0.706 0.064,-0.617 0.064,-0.514C0.064,-0.255 0.495,-0.373 0.495,-0.181C0.495,-0.112 0.438,-0.057 0.307,-0.057C0.215,-0.057 0.126,-0.093 0.076,-0.142L0.047,-0.085C0.099,-0.031 0.202,0.006 0.307,0.006Z" style="fill:rgb(238,135,38);fill-rule:nonzero;"/>
            </g>
            <g transform="matrix(25.8592,0,0,91.8777,2866.49,379.004)">
                <path d="M0.626,-0.7L0.626,-0.388L0.188,-0.388L0.188,-0.7L0.114,-0.7L0.114,-0L0.188,-0L0.188,-0.323L0.626,-0.323L0.626,-0L0.699,-0L0.699,-0.7L0.626,-0.7Z" style="fill:rgb(238,135,38);fill-rule:nonzero;"/>
            </g>
            <g transform="matrix(25.8592,0,0,91.8777,2890.1,379.004)">
                <path d="M0.42,0.006C0.63,0.006 0.787,-0.145 0.787,-0.35C0.787,-0.555 0.63,-0.706 0.42,-0.706C0.208,-0.706 0.052,-0.554 0.052,-0.35C0.052,-0.146 0.208,0.006 0.42,0.006ZM0.42,-0.06C0.251,-0.06 0.125,-0.183 0.125,-0.35C0.125,-0.517 0.251,-0.64 0.42,-0.64C0.588,-0.64 0.713,-0.517 0.713,-0.35C0.713,-0.183 0.588,-0.06 0.42,-0.06Z" style="fill:rgb(238,135,38);fill-rule:nonzero;"/>
            </g>
            <g transform="matrix(25.8592,0,0,91.8777,2914.39,379.004)">
                <path d="M0.376,-0.7L0.114,-0.7L0.114,-0L0.188,-0L0.188,-0.221L0.376,-0.221C0.554,-0.221 0.662,-0.311 0.662,-0.46C0.662,-0.61 0.554,-0.7 0.376,-0.7ZM0.374,-0.286L0.188,-0.286L0.188,-0.636L0.374,-0.636C0.514,-0.636 0.588,-0.572 0.588,-0.46C0.588,-0.35 0.514,-0.286 0.374,-0.286Z" style="fill:rgb(238,135,38);fill-rule:nonzero;"/>
            </g>
        </g>
    </g>
</svg>
